<?xml version="1.0" standalone="no"?>
<!DOCTYPE svg PUBLIC "-//W3C//DTD SVG 20010904//EN"
 "http://www.w3.org/TR/2001/REC-SVG-20010904/DTD/svg10.dtd">
<svg version="1.0" xmlns="http://www.w3.org/2000/svg"
 width="700.000000pt" height="700.000000pt" viewBox="0 0 700.000000 700.000000"
 preserveAspectRatio="xMidYMid meet">
<metadata>
Created by potrace 1.14, written by Peter Selinger 2001-2017
</metadata>
<g transform="translate(0.000000,700.000000) scale(0.100000,-0.100000)"
fill="#000000" stroke="none">
<path d="M3511 6574 c-25 -11 -78 -99 -419 -699 -9 -16 -36 -63 -59 -103 -24
-40 -43 -74 -43 -77 0 -2 -20 -38 -45 -79 -25 -42 -45 -78 -45 -80 0 -2 -26
-48 -58 -103 -108 -182 -123 -214 -117 -243 3 -16 15 -36 27 -46 18 -17 41
-19 269 -19 137 0 249 -3 249 -7 0 -4 -29 -68 -65 -141 l-65 -133 -88 -17
c-125 -24 -118 -22 -238 -57 -263 -75 -585 -232 -793 -385 -35 -26 -67 -43
-71 -38 -4 4 -19 60 -35 123 -168 686 -631 1315 -1160 1577 -143 71 -304 123
-429 138 -88 11 -111 -10 -121 -116 -4 -35 -8 -80 -11 -99 -10 -87 -4 -392 10
-485 3 -16 8 -57 12 -90 3 -33 8 -67 9 -75 106 -576 365 -1091 735 -1460 69
-69 164 -154 213 -189 83 -60 87 -65 74 -85 -99 -154 -197 -348 -253 -502 -34
-96 -80 -255 -89 -314 -3 -19 -12 -73 -20 -120 -13 -80 -15 -365 -2 -415 3
-11 8 -41 11 -66 26 -190 133 -452 270 -657 277 -414 749 -751 1308 -933 203
-66 425 -116 598 -134 30 -3 66 -8 80 -10 95 -16 421 -21 580 -10 149 10 308
32 450 61 41 9 85 18 97 20 12 2 77 20 145 40 464 135 845 353 1154 659 312
310 463 595 540 1015 13 74 12 345 -2 440 -27 175 -71 336 -139 505 -40 100
-143 301 -198 387 l-36 55 92 69 c168 125 363 334 498 535 199 297 371 710
424 1018 3 19 7 37 9 40 2 3 7 31 11 61 4 30 8 57 10 60 2 3 6 42 10 85 4 44
8 94 11 110 10 74 3 412 -11 480 -2 11 -4 33 -4 48 -1 16 -12 39 -27 54 -23
23 -31 25 -77 19 -391 -44 -826 -324 -1126 -725 -19 -25 -46 -62 -61 -81 -82
-109 -300 -513 -300 -555 0 -4 -7 -21 -15 -38 -37 -82 -126 -382 -128 -434 0
-7 -2 -13 -4 -13 -3 0 -46 29 -96 63 -51 35 -108 72 -127 83 -19 10 -42 24
-50 31 -24 18 -267 138 -350 171 -74 30 -222 79 -310 102 l-45 12 22 18 c20
16 88 76 258 230 33 30 93 84 134 120 254 226 270 242 277 276 4 24 0 37 -18
59 l-25 28 -266 0 c-147 1 -267 4 -267 7 0 3 8 15 18 26 9 10 73 87 141 169
69 83 157 188 195 235 39 46 80 95 91 109 11 13 25 29 30 35 6 6 62 74 125
151 63 77 125 151 138 165 49 52 50 107 5 137 -23 15 -94 17 -711 17 -481 1
-693 -2 -711 -10z"/>
</g>
</svg>
